# xmcd
#
# Track frame offsets:
#	300
#	15673
#	32662
#	58225
#	81848
#	99393
#	119108
#	142046
#	166492
#	181943
#	201338
#	229206
#	247668
#	261480
#	296766
#	317529
#	331803
#	347109
#
# Disc length: 4798 seconds
#
# Revision: 1
# Processed by: cddbd v1.5.2PL0 Copyright (c) Steve Scherf et al.
# Submitted via: EasyCDDAExtractor 8.2.3.1
#
DISCID=0f12ba12
DTITLE=Various Artist - Whiskey, Bikers and The Blues vol.1
DYEAR=2000
DGENRE=Blues
TTITLE0=Dr. FEELGOOD - Whiskey
TTITLE1=GUITAR PETE - Mustang Sally
TTITLE2=BTO - House of the Rising Sun
TTITLE3=JAMES SOLBERG - See That My Grave Is Kept Clean
TTITLE4=GEORGE THOROGOOD - The Usual
TTITLE5=OMAR and The HOWLERS - Black Bottom
TTITLE6=JIMMY THACKERY - That's How I Feel
TTITLE7=DAVE HOLE - Demolition Man
TTITLE8=Dr. JOHN - I Don't Wanna Know
TTITLE9=ALEX PERCHE - Run for Cover
TTITLE10=TINSLEY ELLIS - Early in the Morning
TTITLE11=CROSSROAD JAM - Let in Rain
TTITLE12=HAMBURG BLUES BAND - Give-Power to the Blues
TTITLE13=JULIAN SAS - Make Up Your Mind
TTITLE14=JIM SUHLER and MONKEY BEAT - Bad News
TTITLE15=LONG JOHN BALDRY - It's Too Late Brother
TTITLE16=JAY HOOKS - Easy Way Out
TTITLE17=OMAR and The HOWLERS - I Told You So
EXTD=
EXTT0=
EXTT1=
EXTT2=
EXTT3=
EXTT4=
EXTT5=
EXTT6=
EXTT7=
EXTT8=
EXTT9=
EXTT10=
EXTT11=
EXTT12=
EXTT13=
EXTT14=
EXTT15=
EXTT16=
EXTT17=
PLAYORDER=
